<?xml version="1.0" standalone="no"?>
<!DOCTYPE svg PUBLIC "-//W3C//DTD SVG 20010904//EN"
 "http://www.w3.org/TR/2001/REC-SVG-20010904/DTD/svg10.dtd">
<svg version="1.0" xmlns="http://www.w3.org/2000/svg"
 width="300.000000pt" height="300.000000pt" viewBox="0 0 300.000000 300.000000"
 preserveAspectRatio="xMidYMid meet">
<metadata>
Created by potrace 1.10, written by Peter Selinger 2001-2011
</metadata>
<g transform="translate(0.000000,300.000000) scale(0.100000,-0.100000)"
fill="#000000" stroke="none">
<path d="M1540 1815 c-20 -11 -79 -14 -285 -15 l-260 0 -35 -29 c-61 -49 -97
-63 -143 -55 -52 9 -72 8 -222 -17 -160 -26 -163 -30 -157 -177 4 -90 7 -110
25 -129 11 -13 29 -23 39 -23 10 0 107 32 214 70 171 61 234 79 234 67 0 -2
-11 -27 -25 -55 -14 -29 -25 -65 -25 -80 0 -32 39 -75 84 -92 25 -9 34 -8 55
8 26 20 26 18 66 108 l27 61 96 -1 95 -1 38 -73 c52 -100 103 -167 162 -213
56 -45 65 -46 100 -19 26 20 97 121 97 138 0 5 -22 34 -50 66 -55 63 -95 127
-105 169 -7 24 -5 27 20 27 14 0 35 -5 46 -10 13 -7 38 -8 77 -1 31 5 115 13
187 16 71 4 137 11 147 16 9 5 109 9 223 9 186 0 209 2 245 20 47 24 60 58 36
92 -9 12 -16 34 -16 48 0 29 -22 65 -49 80 -24 12 -64 -18 -87 -66 -15 -31
-20 -34 -61 -34 -37 0 -52 6 -85 34 -37 32 -45 34 -131 40 -51 3 -162 11 -247
17 -291 19 -303 19 -330 4z m119 -30 c31 -1 63 -4 71 -8 8 -4 76 -9 150 -12
74 -2 179 -7 233 -10 92 -6 99 -8 107 -31 12 -32 47 -44 123 -44 62 1 62 1 78
38 9 20 19 45 22 55 4 9 16 17 27 17 18 0 20 -6 20 -54 0 -45 3 -54 20 -59 11
-3 20 -12 20 -19 0 -28 -73 -38 -283 -38 -113 0 -208 -4 -211 -9 -3 -5 -68
-12 -143 -15 -76 -4 -162 -12 -191 -18 -40 -9 -56 -8 -64 0 -10 10 -138 18
-138 9 0 -2 9 -30 20 -62 25 -73 66 -137 124 -194 l44 -44 -51 -65 -51 -65
-71 75 c-80 82 -144 197 -166 292 -6 30 -16 53 -21 50 -6 -4 -8 -14 -6 -23 3
-9 -1 -29 -8 -46 -8 -18 -13 -23 -14 -12 0 19 -15 23 -25 7 -3 -5 -33 -10 -65
-10 -44 0 -61 4 -68 16 -5 9 -14 14 -20 11 -14 -10 -82 -156 -82 -178 0 -11
-6 -22 -14 -25 -19 -7 -86 25 -93 44 -3 8 11 49 32 91 44 91 44 117 -2 114
-17 -2 -125 -37 -239 -78 -199 -72 -244 -84 -244 -67 0 4 -2 55 -3 114 l-3
108 30 5 c268 44 277 45 304 31 23 -12 34 -11 75 2 26 8 64 30 84 49 l37 33
285 0 c222 0 282 3 273 12 -20 20 -14 29 15 22 15 -4 52 -8 82 -9z"/>
<path d="M2437 1713 c-13 -12 -7 -23 13 -23 11 0 20 7 20 15 0 15 -21 21 -33
8z"/>
<path d="M2040 1690 c0 -6 32 -10 75 -10 43 0 75 4 75 10 0 6 -32 10 -75 10
-43 0 -75 -4 -75 -10z"/>
<path d="M2040 1638 c0 -5 32 -8 70 -8 39 0 70 4 70 8 0 4 -31 7 -70 7 -38 0
-70 -3 -70 -7z"/>
<path d="M2330 1640 l-55 -7 63 -1 c36 -1 62 2 62 8 0 6 -3 9 -7 8 -5 -1 -33
-4 -63 -8z"/>
<path d="M1230 1573 c-50 -8 -54 -12 -35 -33 19 -21 17 -24 -9 -14 -9 3 -16
15 -16 25 0 10 -7 19 -15 19 -16 0 -19 -17 -9 -44 5 -12 21 -16 65 -16 l59 0
0 35 c0 19 -3 34 -7 34 -5 -1 -19 -4 -33 -6z"/>
<path d="M2787 212 c-20 -21 -37 -42 -37 -48 0 -16 71 -84 88 -84 19 0 82 64
82 84 0 17 -67 86 -85 86 -6 0 -28 -17 -48 -38z m103 -37 c21 -7 21 -8 -8 -25
-17 -10 -33 -28 -37 -40 -7 -21 -8 -21 -25 8 -10 17 -28 33 -40 37 -21 7 -21
8 8 25 17 10 33 28 37 40 7 21 8 21 25 -8 10 -17 28 -33 40 -37z"/>
</g>
</svg>
