<?xml version="1.0" standalone="no"?>
<!DOCTYPE svg PUBLIC "-//W3C//DTD SVG 20010904//EN"
 "http://www.w3.org/TR/2001/REC-SVG-20010904/DTD/svg10.dtd">
<svg version="1.0" xmlns="http://www.w3.org/2000/svg"
 width="300.000000pt" height="300.000000pt" viewBox="0 0 300.000000 300.000000"
 preserveAspectRatio="xMidYMid meet">
<metadata>
Created by potrace 1.10, written by Peter Selinger 2001-2011
</metadata>
<g transform="translate(0.000000,300.000000) scale(0.100000,-0.100000)"
fill="#000000" stroke="none">
<path d="M1550 1783 c0 -10 -61 -13 -272 -13 l-273 0 -37 -34 c-52 -48 -119
-72 -157 -57 -16 7 -42 11 -57 8 -25 -3 -24 -4 8 -6 20 0 40 -5 43 -11 3 -5
15 -10 27 -10 30 0 118 33 118 45 1 5 18 21 38 34 37 23 39 23 287 21 296 -4
296 -4 290 13 -4 9 10 11 57 9 35 -2 106 -5 158 -7 l95 -3 -95 9 c-159 15
-230 16 -230 2z"/>
<path d="M2440 1774 c0 -9 -10 -32 -21 -51 -12 -19 -19 -37 -15 -40 3 -3 8 2
12 11 3 9 16 16 28 15 20 0 20 -1 1 -9 -19 -8 -19 -9 3 -9 13 -1 22 5 22 14 0
8 -9 15 -19 15 -17 0 -18 3 -8 30 18 48 37 38 37 -20 0 -27 3 -50 8 -50 4 0 5
25 4 55 -4 50 -6 55 -28 55 -16 0 -24 -6 -24 -16z"/>
<path d="M1970 1759 c94 -10 160 -15 212 -18 18 -1 29 -8 33 -22 8 -23 61 -50
97 -48 13 1 4 5 -20 11 -34 7 -48 17 -64 44 -19 32 -23 34 -71 34 -29 0 -104
2 -167 4 l-115 5 95 -10z"/>
<path d="M570 1661 l-95 -16 -1 -55 -1 -55 6 50 6 50 100 17 c134 22 146 25
110 25 -16 1 -73 -7 -125 -16z"/>
<path d="M2514 1663 c0 -12 -7 -19 -21 -21 -13 -2 -23 -7 -23 -12 0 -4 -111
-11 -247 -14 -137 -4 -291 -10 -343 -15 l-95 -8 115 3 c63 2 214 6 335 9 121
3 229 9 240 14 11 5 28 12 38 15 17 5 25 46 8 46 -5 0 -8 -8 -7 -17z"/>
<path d="M2040 1640 c0 -6 30 -10 70 -10 40 0 70 4 70 10 0 6 -30 10 -70 10
-40 0 -70 -4 -70 -10z"/>
<path d="M2280 1640 c0 -6 27 -10 60 -10 33 0 60 4 60 10 0 6 -27 10 -60 10
-33 0 -60 -4 -60 -10z"/>
<path d="M1500 1578 c1 -12 8 -36 16 -53 8 -16 12 -21 8 -10 -22 75 -22 75 39
75 31 0 59 -4 62 -10 7 -11 65 -11 110 0 23 6 15 8 -35 8 -36 1 -95 4 -132 7
-66 7 -68 6 -68 -17z"/>
<path d="M1147 1574 c-4 -4 -7 -18 -7 -31 0 -13 -6 -23 -14 -23 -15 0 -96
-157 -96 -185 0 -19 -23 -19 -60 0 -37 19 -37 38 -5 100 14 26 24 50 21 52 -7
7 -56 -93 -56 -115 0 -10 8 -27 19 -36 20 -19 91 -34 92 -20 3 33 13 63 44
124 34 68 47 81 60 60 4 -6 37 -9 81 -7 49 3 74 0 74 -7 1 -16 26 34 34 67 3
15 2 27 -3 27 -5 0 -11 -14 -13 -32 -2 -22 -9 -32 -23 -34 -17 -3 -20 2 -20
29 0 31 -2 32 -43 35 -31 2 -44 -1 -48 -13 -6 -14 -7 -14 -18 0 -6 9 -15 13
-19 9z m50 -54 c13 0 14 3 5 12 -22 22 -13 38 22 38 31 0 34 -3 38 -32 l3 -33
-57 1 c-32 1 -58 5 -58 8 0 3 0 18 0 34 l1 27 15 -27 c8 -16 22 -28 31 -28z"/>
<path d="M815 1525 c-66 -24 -158 -57 -205 -74 -116 -42 -128 -41 -133 9 l-4
40 1 -42 c1 -39 4 -43 27 -46 15 -2 120 31 235 72 114 42 218 76 230 76 24 0
37 -21 27 -47 -5 -14 -3 -16 7 -6 8 7 10 22 6 37 -9 37 -47 34 -191 -19z"/>
<path d="M1351 1503 c-2 -25 42 -120 84 -184 51 -76 138 -161 157 -153 11 4
67 73 91 110 4 8 -12 32 -43 64 -28 29 -62 75 -76 102 -14 28 -28 48 -30 45
-10 -10 42 -92 92 -146 l52 -56 -46 -59 -46 -59 -71 75 c-67 69 -101 125 -153
248 -6 14 -11 20 -11 13z"/>
</g>
</svg>
