<?xml version="1.0" standalone="no"?>
<!DOCTYPE svg PUBLIC "-//W3C//DTD SVG 20010904//EN"
 "http://www.w3.org/TR/2001/REC-SVG-20010904/DTD/svg10.dtd">
<svg version="1.0" xmlns="http://www.w3.org/2000/svg"
 width="300.000000pt" height="275.000000pt" viewBox="0 0 300.000000 275.000000"
 preserveAspectRatio="xMidYMid meet">
<metadata>
Created by potrace 1.10, written by Peter Selinger 2001-2011
</metadata>
<g transform="translate(0.000000,275.000000) scale(0.100000,-0.100000)"
fill="#000000" stroke="none">
<path d="M670 1669 c-7 -11 -9 -23 -7 -26 3 -2 8 5 12 16 8 27 31 27 38 1 5
-20 14 -20 842 -20 791 0 836 -1 833 -17 -3 -14 -11 -17 -33 -13 -17 3 -328 5
-692 5 -365 0 -663 3 -663 6 0 8 -137 5 -145 -3 -4 -4 -16 -1 -27 5 -16 9 -22
9 -25 0 -3 -9 -9 -10 -23 -1 -14 9 -22 9 -33 -1 -10 -8 -17 -8 -21 -2 -4 6
-34 8 -76 5 -73 -5 -101 11 -32 19 32 4 31 4 -8 3 l-45 -1 -2 -85 c-3 -85 -8
-158 -15 -195 -2 -15 3 -21 22 -23 46 -5 82 -25 102 -56 15 -23 18 -25 13 -8
-8 28 10 29 26 1 28 -53 29 -82 7 -151 -12 -37 -28 -68 -35 -68 -9 0 -10 6 -3
26 6 14 10 31 9 37 0 11 -27 -49 -28 -65 -1 -5 6 -8 14 -8 8 0 15 -5 15 -11 0
-6 -9 -8 -20 -4 -13 4 -20 2 -20 -7 0 -7 -22 -51 -49 -98 -37 -64 -45 -86 -34
-88 8 -2 12 -10 9 -19 -3 -8 -6 -16 -6 -19 0 -2 -8 0 -17 3 -15 6 -15 7 3 14
16 7 17 8 2 8 -11 1 -27 -17 -43 -49 -24 -48 -34 -80 -15 -50 7 12 12 12 22 2
9 -9 9 -12 -1 -12 -7 0 -9 -5 -6 -10 3 -6 0 -10 -7 -10 -9 0 -9 -3 2 -10 12
-8 9 -10 -11 -10 -19 0 -28 -6 -32 -22 -8 -29 -1 -36 8 -9 3 12 10 21 14 21
10 0 2 -59 -11 -87 -9 -19 -14 -21 -27 -10 -14 10 -14 10 -3 -5 18 -22 96 -68
117 -68 14 0 14 -2 -1 -25 -29 -45 -18 -50 160 -70 91 -10 168 -16 171 -13 4
4 12 39 14 61 1 4 16 5 34 2 45 -8 63 6 47 35 -7 13 -9 36 -6 56 8 42 85 205
109 228 9 10 17 27 17 39 0 31 45 137 69 165 23 26 63 29 115 7 53 -22 441
-18 441 5 0 8 -6 21 -13 29 -11 11 -13 35 -10 94 4 68 8 82 32 105 26 27 28
27 186 30 88 2 160 8 160 13 0 13 38 11 46 -2 8 -13 253 -4 266 9 4 4 9 90 10
190 3 175 2 183 -17 188 -11 4 -27 12 -35 19 -8 7 -30 16 -48 20 -29 6 -34 4
-39 -14 l-5 -21 -768 0 c-759 0 -768 0 -773 20 -7 26 -43 26 -57 -1z m102
-123 l1 -41 4 43 c3 33 8 42 19 38 8 -3 14 0 14 7 0 7 7 3 15 -7 12 -16 15
-17 15 -4 0 11 6 15 20 11 17 -5 20 -15 22 -67 l2 -61 3 62 c4 56 6 62 26 60
12 0 25 -6 29 -12 5 -6 8 -3 8 7 0 11 6 15 20 11 18 -5 20 -14 20 -78 l0 -72
-46 3 c-25 2 -49 6 -55 9 -5 4 -9 2 -9 -3 0 -5 -17 -8 -37 -6 -21 2 -43 3 -50
3 -6 1 -14 13 -16 29 l-4 27 -1 -30 c-2 -32 0 -31 -89 -26 -6 1 -14 11 -16 24
-4 18 -5 17 -6 -7 -1 -21 -5 -27 -17 -22 -9 3 -24 6 -35 6 -17 0 -18 6 -12 63
3 34 6 63 7 64 1 1 13 4 29 8 25 7 27 5 29 -26 l1 -34 4 33 c3 26 9 32 28 32
13 0 26 -6 28 -12 4 -8 6 -7 6 4 1 11 7 15 21 11 16 -4 20 -15 22 -47z m1603
32 c2 -1 5 -32 6 -68 l3 -65 -335 0 c-185 0 -384 4 -444 9 -67 6 -110 6 -112
0 -3 -8 -102 -9 -460 -4 l-33 0 0 68 0 67 686 -2 c377 0 687 -3 689 -5z m-360
-154 c187 2 237 1 110 -1 -150 -2 -231 -7 -236 -14 -4 -7 -52 -10 -140 -8 -74
2 -235 2 -359 1 -182 -3 -227 -6 -233 -18 -11 -20 -96 -19 -103 1 -5 13 -35
15 -184 15 -195 0 -302 8 -294 22 3 5 134 8 295 7 165 -1 286 -5 283 -10 -3
-5 7 -4 21 1 14 5 107 9 205 8 99 -1 182 1 185 4 3 2 28 1 57 -3 29 -4 206 -6
393 -5z m369 -36 c-3 -13 -8 -25 -10 -26 -1 -2 -109 -5 -238 -5 -218 -2 -236
-3 -236 -19 0 -17 19 -18 248 -18 163 0 242 -4 232 -10 -18 -11 -507 -14 -513
-2 -8 11 -279 6 -309 -6 -15 -6 -67 -10 -117 -9 -82 2 -88 1 -75 -14 13 -14
13 -18 -1 -29 -8 -7 -15 -18 -15 -26 0 -23 -31 -44 -64 -44 -33 0 -62 -23 -85
-67 -13 -26 7 -39 25 -15 9 12 11 7 11 -27 0 -42 -1 -43 -29 -39 -21 4 -34 -1
-46 -17 -9 -11 -25 -24 -35 -28 -9 -4 -20 -15 -24 -24 -4 -10 -13 -22 -20 -28
-18 -14 -63 -107 -57 -117 3 -5 -1 -17 -9 -26 -14 -18 -28 -46 -33 -72 -2 -8
4 -21 14 -29 15 -12 15 -13 -6 -8 -15 3 -27 -1 -36 -15 -18 -25 -10 -49 12
-41 9 4 14 3 10 -1 -3 -4 -12 -9 -20 -10 -7 -1 -27 -16 -45 -32 l-32 -31 19
-27 18 -28 13 28 c20 39 39 42 39 6 0 -17 3 -38 7 -47 5 -14 2 -16 -18 -10
-13 5 -42 9 -64 11 -61 3 -245 25 -294 34 -46 8 -63 24 -53 48 3 10 1 13 -6 8
-18 -11 -14 41 8 104 11 30 19 60 20 67 0 7 25 56 56 110 31 54 70 127 86 163
16 36 33 72 37 81 5 8 5 22 0 31 -6 11 -5 19 2 24 8 4 9 3 5 -4 -4 -7 -2 -12
3 -12 11 0 15 22 15 90 1 35 -8 51 -52 97 -24 26 -29 47 -10 41 7 -3 19 1 26
9 8 7 25 11 39 8 14 -2 81 -5 149 -6 93 -1 124 -5 128 -15 7 -19 95 -19 102 0
3 8 12 17 20 20 8 3 13 2 10 -2 -2 -4 34 -6 81 -5 59 1 88 5 94 15 7 10 9 9 9
-4 0 -10 7 -15 18 -13 85 17 84 17 77 -18 l-6 -32 21 34 c15 24 24 31 29 22 6
-10 10 -9 14 3 9 23 78 19 85 -6 3 -12 8 -15 16 -9 13 10 85 9 104 -3 7 -4 12
-4 12 1 0 4 32 8 71 8 47 -1 73 4 77 12 6 9 57 13 192 16 102 1 213 3 248 5
61 2 63 1 56 -20z m-614 -98 c0 -14 -49 -40 -73 -40 -26 0 -62 32 -50 44 9 9
123 5 123 -4z m-128 -57 c24 -28 31 -61 23 -120 -10 -78 -30 -88 -190 -97
-102 -5 -131 -3 -164 10 -22 9 -40 19 -39 22 1 4 -3 24 -10 45 -6 21 -8 45 -5
53 6 15 17 8 56 -35 42 -46 92 -91 101 -91 3 0 10 9 16 19 8 16 4 29 -21 66
-27 40 -30 51 -25 90 l7 44 57 4 c148 9 179 7 194 -10z m-1012 -321 c0 -18
-28 -44 -41 -39 -9 4 -7 6 6 6 17 1 17 3 5 11 -12 8 -12 10 5 10 17 0 17 2 5
10 -13 8 -12 10 3 10 9 0 17 -4 17 -8z m473 -45 c-4 -6 -6 -24 -5 -39 2 -30
-8 -34 -39 -17 -16 8 -18 13 -8 25 6 8 18 14 26 14 8 0 11 5 8 10 -3 6 -1 10
5 10 6 0 8 5 4 12 -4 7 -3 8 5 4 6 -4 8 -13 4 -19z m-62 -84 c-11 -5 -11 -7 0
-14 11 -7 9 -9 -6 -9 -17 0 -17 -2 -5 -10 12 -8 12 -10 -5 -10 -17 0 -17 -2
-5 -10 13 -8 12 -10 -2 -10 -22 0 -22 3 -3 40 9 17 21 30 28 29 8 0 8 -2 -2
-6z m-301 -314 c110 -14 120 -17 98 -30 -12 -7 -32 -6 -60 2 -24 6 -63 13 -88
15 -25 2 -58 8 -75 13 l-30 9 35 1 c19 1 73 -4 120 -10z"/>
<path d="M1528 1357 c-25 -27 -29 -47 -9 -47 7 0 44 71 39 74 -2 2 -15 -11
-30 -27z"/>
<path d="M1021 1345 c7 -34 169 -40 169 -7 0 4 -32 6 -70 4 -49 -3 -75 0 -86
9 -14 12 -16 11 -13 -6z"/>
<path d="M910 1283 c0 -16 -2 -16 -11 -3 -9 13 -10 13 -6 0 2 -8 11 -13 18
-11 30 10 105 8 118 -3 12 -9 12 -8 2 12 -10 19 -20 22 -66 22 -46 0 -55 -3
-55 -17z"/>
<path d="M864 1121 c18 -17 132 -23 173 -8 20 7 21 6 11 -33 -12 -45 -9 -53
16 -44 12 5 14 10 6 19 -14 16 -1 48 16 41 20 -8 17 4 -3 20 -16 12 -15 12 7
7 15 -3 22 -2 17 3 -5 5 -65 10 -134 10 -115 1 -123 0 -109 -15z"/>
<path d="M2422 1529 c-2 -49 0 -69 7 -64 12 7 15 135 4 135 -5 0 -9 -32 -11
-71z"/>
</g>
</svg>
