{
  "accessors": [
    {
      "bufferView": 2,
      "componentType": 5126,
      "count": 3077,
      "max": [
        0.8675165176391602,
        0.5646858811378479,
        0.7332879900932312
      ],
      "min": [
        -1.459083080291748,
        0.05450478196144104,
        0.5962280631065369
      ],
      "type": "VEC3"
    },
    {
      "bufferView": 2,
      "byteOffset": 36924,
      "componentType": 5126,
      "count": 3077,
      "max": [
        1.0,
        1.0,
        1.0
      ],
      "min": [
        -1.0,
        -1.0,
        -1.0
      ],
      "type": "VEC3"
    },
    {
      "bufferView": 1,
      "componentType": 5126,
      "count": 3077,
      "max": [
        0.625,
        0.5000001192092896
      ],
      "min": [
        0.0,
        0.0
      ],
      "type": "VEC2"
    },
    {
      "bufferView": 0,
      "componentType": 5125,
      "count": 5232,
      "type": "SCALAR"
    },
    {
      "bufferView": 2,
      "byteOffset": 73848,
      "componentType": 5126,
      "count": 1855,
      "max": [
        0.8357176780700684,
        0.5012003183364868,
        0.7335760593414307
      ],
      "min": [
        -2.4054150581359863,
        -0.139356791973114,
        0.596609354019165
      ],
      "type": "VEC3"
    },
    {
      "bufferView": 2,
      "byteOffset": 96108,
      "componentType": 5126,
      "count": 1855,
      "max": [
        1.0,
        1.0,
        1.0
      ],
      "min": [
        -1.0,
        -1.0,
        -1.0
      ],
      "type": "VEC3"
    },
    {
      "bufferView": 1,
      "byteOffset": 24616,
      "componentType": 5126,
      "count": 1855,
      "max": [
        0.6250066757202148,
        0.5000000596046448
      ],
      "min": [
        0.0,
        0.0
      ],
      "type": "VEC2"
    },
    {
      "bufferView": 0,
      "byteOffset": 20928,
      "componentType": 5125,
      "count": 3195,
      "type": "SCALAR"
    },
    {
      "bufferView": 2,
      "byteOffset": 118368,
      "componentType": 5126,
      "count": 169,
      "max": [
        -0.2957811653614044,
        0.4267038106918335,
        0.7522749304771423
      ],
      "min": [
        -0.9699845910072327,
        0.23137226700782776,
        0.6017791032791138
      ],
      "type": "VEC3"
    },
    {
      "bufferView": 2,
      "byteOffset": 120396,
      "componentType": 5126,
      "count": 169,
      "max": [
        0.9998038411140442,
        0.9999939203262329,
        1.0
      ],
      "min": [
        -0.9998728036880493,
        -0.9999992847442627,
        -1.0
      ],
      "type": "VEC3"
    },
    {
      "bufferView": 1,
      "byteOffset": 39456,
      "componentType": 5126,
      "count": 169,
      "max": [
        0.5430232286453247,
        0.5000001192092896
      ],
      "min": [
        0.0,
        0.0
      ],
      "type": "VEC2"
    },
    {
      "bufferView": 0,
      "byteOffset": 33708,
      "componentType": 5125,
      "count": 303,
      "type": "SCALAR"
    },
    {
      "bufferView": 2,
      "byteOffset": 122424,
      "componentType": 5126,
      "count": 32,
      "max": [
        -0.7003908157348633,
        0.36801615357398987,
        0.7274512648582458
      ],
      "min": [
        -0.757631778717041,
        0.3632868826389313,
        0.7246309518814087
      ],
      "type": "VEC3"
    },
    {
      "bufferView": 2,
      "byteOffset": 122808,
      "componentType": 5126,
      "count": 32,
      "max": [
        0.28241729736328125,
        0.6442817449569702,
        -0.4597366154193878
      ],
      "min": [
        -0.26026543974876404,
        -0.8880553245544434,
        -0.9655227661132813
      ],
      "type": "VEC3"
    },
    {
      "bufferView": 1,
      "byteOffset": 40808,
      "componentType": 5126,
      "count": 32,
      "max": [
        0.0,
        0.0
      ],
      "min": [
        0.0,
        0.0
      ],
      "type": "VEC2"
    },
    {
      "bufferView": 0,
      "byteOffset": 34920,
      "componentType": 5125,
      "count": 48,
      "type": "SCALAR"
    },
    {
      "bufferView": 2,
      "byteOffset": 123192,
      "componentType": 5126,
      "count": 4332,
      "max": [
        2.6431467533111572,
        2.39300537109375,
        1.7894136905670166
      ],
      "min": [
        -1.8682783842086792,
        -30.076322555541992,
        -1.7894136905670166
      ],
      "type": "VEC3"
    },
    {
      "bufferView": 2,
      "byteOffset": 175176,
      "componentType": 5126,
      "count": 4332,
      "max": [
        0.9999468326568604,
        0.9999998807907104,
        0.9951847791671753
      ],
      "min": [
        -0.9999468326568604,
        -0.9999999403953552,
        -0.9951847791671753
      ],
      "type": "VEC3"
    },
    {
      "bufferView": 1,
      "byteOffset": 41064,
      "componentType": 5126,
      "count": 4332,
      "max": [
        0.7228789925575256,
        0.9751946926116943
      ],
      "min": [
        0.024805357679724693,
        0.024805357679724693
      ],
      "type": "VEC2"
    },
    {
      "bufferView": 0,
      "byteOffset": 35112,
      "componentType": 5125,
      "count": 6492,
      "type": "SCALAR"
    },
    {
      "bufferView": 2,
      "byteOffset": 227160,
      "componentType": 5126,
      "count": 48,
      "max": [
        2.337987184524536,
        -13.949126243591309,
        0.5421926975250244
      ],
      "min": [
        1.9558742046356201,
        -14.97877311706543,
        -0.5421926975250244
      ],
      "type": "VEC3"
    },
    {
      "bufferView": 2,
      "byteOffset": 227736,
      "componentType": 5126,
      "count": 48,
      "max": [
        0.0029079937376081944,
        0.9721993207931519,
        0.9214932918548584
      ],
      "min": [
        -0.0028841346502304077,
        -0.9802417159080505,
        -0.9214931726455688
      ],
      "type": "VEC3"
    },
    {
      "bufferView": 1,
      "byteOffset": 75720,
      "componentType": 5126,
      "count": 48,
      "max": [
        0.6451411247253418,
        0.7121941447257996
      ],
      "min": [
        0.5591586232185364,
        0.6210694313049316
      ],
      "type": "VEC2"
    },
    {
      "bufferView": 0,
      "byteOffset": 61080,
      "componentType": 5125,
      "count": 72,
      "type": "SCALAR"
    },
    {
      "bufferView": 2,
      "byteOffset": 228312,
      "componentType": 5126,
      "count": 544,
      "max": [
        1.5120844841003418,
        2.0142784118652344,
        1.4837265014648438
      ],
      "min": [
        -1.5717189311981201,
        -30.058143615722656,
        -1.4837265014648438
      ],
      "type": "VEC3"
    },
    {
      "bufferView": 2,
      "byteOffset": 234840,
      "componentType": 5126,
      "count": 544,
      "max": [
        0.2799244225025177,
        0.99997878074646,
        0.2278442680835724
      ],
      "min": [
        -0.28151223063468933,
        -0.99997878074646,
        -0.22784432768821716
      ],
      "type": "VEC3"
    },
    {
      "bufferView": 1,
      "byteOffset": 76104,
      "componentType": 5126,
      "count": 544,
      "max": [
        0.5416136384010315,
        0.2595548629760742
      ],
      "min": [
        0.49469512701034546,
        0.024805361405014992
      ],
      "type": "VEC2"
    },
    {
      "bufferView": 0,
      "byteOffset": 61368,
      "componentType": 5125,
      "count": 888,
      "type": "SCALAR"
    },
    {
      "bufferView": 2,
      "byteOffset": 241368,
      "componentType": 5126,
      "count": 2183,
      "max": [
        3.1680145263671875,
        2.4211554527282715,
        0.5901517271995544
      ],
      "min": [
        -2.457791566848755,
        -3.902754783630371,
        -0.5901517271995544
      ],
      "type": "VEC3"
    },
    {
      "bufferView": 2,
      "byteOffset": 267564,
      "componentType": 5126,
      "count": 2183,
      "max": [
        0.9997263550758362,
        0.9982922077178955,
        1.0
      ],
      "min": [
        -0.9991817474365234,
        -1.0,
        -1.0
      ],
      "type": "VEC3"
    },
    {
      "bufferView": 1,
      "byteOffset": 80456,
      "componentType": 5126,
      "count": 2183,
      "max": [
        0.625,
        1.0
      ],
      "min": [
        0.0,
        0.0
      ],
      "type": "VEC2"
    },
    {
      "bufferView": 0,
      "byteOffset": 64920,
      "componentType": 5125,
      "count": 3606,
      "type": "SCALAR"
    },
    {
      "bufferView": 2,
      "byteOffset": 293760,
      "componentType": 5126,
      "count": 4907,
      "max": [
        6.836665630340576,
        3.934293508529663,
        1.4672720432281494
      ],
      "min": [
        -1.9996802806854248,
        -52.406734466552734,
        -1.4672672748565674
      ],
      "type": "VEC3"
    },
    {
      "bufferView": 2,
      "byteOffset": 352644,
      "componentType": 5126,
      "count": 4907,
      "max": [
        1.0,
        1.0,
        1.0
      ],
      "min": [
        -1.0,
        -1.0,
        -1.0
      ],
      "type": "VEC3"
    },
    {
      "bufferView": 1,
      "byteOffset": 97920,
      "componentType": 5126,
      "count": 4907,
      "max": [
        1.0,
        1.0
      ],
      "min": [
        0.0,
        0.0
      ],
      "type": "VEC2"
    },
    {
      "bufferView": 0,
      "byteOffset": 79344,
      "componentType": 5125,
      "count": 7767,
      "type": "SCALAR"
    }
  ],
  "asset": {
    "extras": {
      "author": "ZeBa (https://sketchfab.com/zebrazeba5)",
      "license": "CC-BY-4.0 (http://creativecommons.org/licenses/by/4.0/)",
      "source": "https://sketchfab.com/3d-models/113abb051adc4e6e95711842632cd74b",
      "title": "СВД"
    },
    "generator": "Sketchfab-15.22.0",
    "version": "2.0"
  },
  "bufferViews": [
    {
      "buffer": 0,
      "byteLength": 110412,
      "name": "floatBufferViews",
      "target": 34963
    },
    {
      "buffer": 0,
      "byteLength": 137176,
      "byteOffset": 110412,
      "byteStride": 8,
      "name": "floatBufferViews",
      "target": 34962
    },
    {
      "buffer": 0,
      "byteLength": 411528,
      "byteOffset": 247588,
      "byteStride": 12,
      "name": "floatBufferViews",
      "target": 34962
    }
  ],
  "buffers": [
    {
      "byteLength": 659116,
      "uri": "scene.bin"
    }
  ],
  "materials": [
    {
      "doubleSided": true,
      "name": "Material.001",
      "pbrMetallicRoughness": {
        "baseColorFactor": [
          0.0122167,
          0.0122167,
          0.0122167,
          1.0
        ],
        "metallicFactor": 0.677165,
        "roughnessFactor": 0.5
      }
    },
    {
      "doubleSided": true,
      "name": "Material.004",
      "pbrMetallicRoughness": {
        "baseColorFactor": [
          0.0908373,
          0.0286248,
          0.00454103,
          1.0
        ],
        "metallicFactor": 0.0,
        "roughnessFactor": 0.5
      }
    },
    {
      "doubleSided": true,
      "name": "Material.005",
      "pbrMetallicRoughness": {
        "baseColorFactor": [
          0.0549681,
          0.0549681,
          0.0549681,
          1.0
        ],
        "metallicFactor": 0.0,
        "roughnessFactor": 0.5
      }
    },
    {
      "doubleSided": true,
      "name": "Material.006",
      "pbrMetallicRoughness": {
        "baseColorFactor": [
          0.00719325,
          0.00719325,
          0.00719325,
          1.0
        ],
        "metallicFactor": 0.0,
        "roughnessFactor": 0.5
      }
    },
    {
      "doubleSided": true,
      "name": "Material.003",
      "pbrMetallicRoughness": {
        "baseColorFactor": [
          0.8,
          0.8,
          0.8,
          1.0
        ],
        "metallicFactor": 0.0,
        "roughnessFactor": 0.5
      }
    },
    {
      "doubleSided": true,
      "name": "Material.007",
      "pbrMetallicRoughness": {
        "baseColorFactor": [
          0.186133,
          0.8,
          0.710712,
          1.0
        ],
        "metallicFactor": 0.267717,
        "roughnessFactor": 0.507874
      }
    }
  ],
  "meshes": [
    {
      "name": "Object_0",
      "primitives": [
        {
          "attributes": {
            "NORMAL": 1,
            "POSITION": 0,
            "TEXCOORD_0": 2
          },
          "indices": 3,
          "material": 0,
          "mode": 4
        }
      ]
    },
    {
      "name": "Object_1",
      "primitives": [
        {
          "attributes": {
            "NORMAL": 5,
            "POSITION": 4,
            "TEXCOORD_0": 6
          },
          "indices": 7,
          "material": 1,
          "mode": 4
        }
      ]
    },
    {
      "name": "Object_2",
      "primitives": [
        {
          "attributes": {
            "NORMAL": 9,
            "POSITION": 8,
            "TEXCOORD_0": 10
          },
          "indices": 11,
          "material": 2,
          "mode": 4
        }
      ]
    },
    {
      "name": "Object_3",
      "primitives": [
        {
          "attributes": {
            "NORMAL": 13,
            "POSITION": 12,
            "TEXCOORD_0": 14
          },
          "indices": 15,
          "material": 3,
          "mode": 4
        }
      ]
    },
    {
      "name": "Object_4",
      "primitives": [
        {
          "attributes": {
            "NORMAL": 17,
            "POSITION": 16,
            "TEXCOORD_0": 18
          },
          "indices": 19,
          "material": 0,
          "mode": 4
        }
      ]
    },
    {
      "name": "Object_5",
      "primitives": [
        {
          "attributes": {
            "NORMAL": 21,
            "POSITION": 20,
            "TEXCOORD_0": 22
          },
          "indices": 23,
          "material": 4,
          "mode": 4
        }
      ]
    },
    {
      "name": "Object_6",
      "primitives": [
        {
          "attributes": {
            "NORMAL": 25,
            "POSITION": 24,
            "TEXCOORD_0": 26
          },
          "indices": 27,
          "material": 5,
          "mode": 4
        }
      ]
    },
    {
      "name": "Object_7",
      "primitives": [
        {
          "attributes": {
            "NORMAL": 29,
            "POSITION": 28,
            "TEXCOORD_0": 30
          },
          "indices": 31,
          "material": 0,
          "mode": 4
        }
      ]
    },
    {
      "name": "Object_8",
      "primitives": [
        {
          "attributes": {
            "NORMAL": 33,
            "POSITION": 32,
            "TEXCOORD_0": 34
          },
          "indices": 35,
          "material": 0,
          "mode": 4
        }
      ]
    }
  ],
  "nodes": [
    {
      "children": [
        1
      ],
      "matrix": [
        1.0,
        0.0,
        0.0,
        0.0,
        0.0,
        2.220446049250313e-16,
        -1.0,
        0.0,
        0.0,
        1.0,
        2.220446049250313e-16,
        0.0,
        0.0,
        0.0,
        0.0,
        1.0
      ],
      "name": "Sketchfab_model"
    },
    {
      "children": [
        2
      ],
      "name": "root"
    },
    {
      "children": [
        3,
        8,
        12,
        14
      ],
      "matrix": [
        1.0,
        0.0,
        0.0,
        0.0,
        0.0,
        2.220446049250313e-16,
        1.0,
        0.0,
        0.0,
        -1.0,
        2.220446049250313e-16,
        0.0,
        0.0,
        0.0,
        0.0,
        1.0
      ],
      "name": "GLTF_SceneRootNode"
    },
    {
      "children": [
        4,
        5,
        6,
        7
      ],
      "name": "Cube_3"
    },
    {
      "mesh": 0,
      "name": "Object_4"
    },
    {
      "mesh": 1,
      "name": "Object_5"
    },
    {
      "mesh": 2,
      "name": "Object_6"
    },
    {
      "mesh": 3,
      "name": "Object_7"
    },
    {
      "children": [
        9,
        10,
        11
      ],
      "matrix": [
        0.000147034717878958,
        0.049555634879028115,
        0.0,
        0.0,
        -0.049555634879028115,
        0.000147034717878958,
        0.0,
        0.0,
        0.0,
        0.0,
        0.04955585300922394,
        0.0,
        -1.5289390087127686,
        0.6114837527275085,
        0.6617818474769592,
        1.0
      ],
      "name": "Cylinder_4"
    },
    {
      "mesh": 4,
      "name": "Object_9"
    },
    {
      "mesh": 5,
      "name": "Object_10"
    },
    {
      "mesh": 6,
      "name": "Object_11"
    },
    {
      "children": [
        13
      ],
      "matrix": [
        0.06370779871940613,
        0.0,
        0.0,
        0.0,
        0.0,
        0.06370779871940613,
        0.0,
        0.0,
        0.0,
        0.0,
        0.06370779871940613,
        0.0,
        -0.6088257431983948,
        0.09679577499628067,
        0.6625354886054993,
        1.0
      ],
      "name": "Cube.001_5"
    },
    {
      "mesh": 7,
      "name": "Object_13"
    },
    {
      "children": [
        15
      ],
      "matrix": [
        -2.4107109480526453e-09,
        0.02859894745051851,
        0.0,
        -0.0,
        -0.02859894745051851,
        -2.4107109480526453e-09,
        -0.0,
        -0.0,
        -0.0,
        0.0,
        -0.028598947450518608,
        -0.0,
        0.9615470767021179,
        0.37363970279693604,
        0.6635358333587646,
        1.0
      ],
      "name": "Cylinder.001_6"
    },
    {
      "mesh": 8,
      "name": "Object_15"
    }
  ],
  "scene": 0,
  "scenes": [
    {
      "name": "Sketchfab_Scene",
      "nodes": [
        0
      ]
    }
  ]
}
