{
  "accessors": [
    {
      "bufferView": 2,
      "componentType": 5126,
      "count": 1565,
      "max": [
        241.86439514160156,
        230.96243286132813,
        23.52090835571289
      ],
      "min": [
        -77.72174072265625,
        -88.30839538574219,
        -4.3217573165893555
      ],
      "type": "VEC3"
    },
    {
      "bufferView": 2,
      "byteOffset": 18780,
      "componentType": 5126,
      "count": 1565,
      "max": [
        0.9999661445617676,
        0.9994262456893921,
        1.0
      ],
      "min": [
        -0.9998266696929932,
        -0.9954608678817749,
        -1.0
      ],
      "type": "VEC3"
    },
    {
      "bufferView": 3,
      "componentType": 5126,
      "count": 1565,
      "max": [
        1.0,
        0.9916205406188965,
        1.0,
        1.0
      ],
      "min": [
        -1.0,
        -0.9472907185554504,
        -1.0,
        -1.0
      ],
      "type": "VEC4"
    },
    {
      "bufferView": 1,
      "componentType": 5126,
      "count": 1565,
      "max": [
        0.998881459236145,
        0.9935877919197083
      ],
      "min": [
        0.0005000000237487257,
        0.0005000000237487257
      ],
      "type": "VEC2"
    },
    {
      "bufferView": 0,
      "componentType": 5125,
      "count": 4131,
      "type": "SCALAR"
    },
    {
      "bufferView": 2,
      "byteOffset": 37560,
      "componentType": 5126,
      "count": 70,
      "max": [
        -202.18455505371094,
        -107.84099578857422,
        19.15291976928711
      ],
      "min": [
        -259.8921813964844,
        -186.3822021484375,
        -0.136962890625
      ],
      "type": "VEC3"
    },
    {
      "bufferView": 2,
      "byteOffset": 38400,
      "componentType": 5126,
      "count": 70,
      "max": [
        0.8887481093406677,
        0.9934313893318176,
        0.998467743396759
      ],
      "min": [
        -0.8324117660522461,
        -0.844862163066864,
        -0.9984678030014038
      ],
      "type": "VEC3"
    },
    {
      "bufferView": 3,
      "byteOffset": 25040,
      "componentType": 5126,
      "count": 70,
      "max": [
        0.8362889885902405,
        0.9295418858528137,
        1.0,
        1.0
      ],
      "min": [
        -0.8422348499298096,
        -0.9287985563278198,
        -0.9999994039535522,
        1.0
      ],
      "type": "VEC4"
    },
    {
      "bufferView": 1,
      "byteOffset": 12520,
      "componentType": 5126,
      "count": 70,
      "max": [
        0.960952639579773,
        0.8885018229484558
      ],
      "min": [
        0.5280749201774597,
        0.14086394011974335
      ],
      "type": "VEC2"
    },
    {
      "bufferView": 0,
      "byteOffset": 16524,
      "componentType": 5125,
      "count": 174,
      "type": "SCALAR"
    },
    {
      "bufferView": 2,
      "byteOffset": 39240,
      "componentType": 5126,
      "count": 87,
      "max": [
        -53.90095901489258,
        9.649876594543457,
        21.004985809326172
      ],
      "min": [
        -254.09886169433594,
        -182.37843322753906,
        -1.8679790496826172
      ],
      "type": "VEC3"
    },
    {
      "bufferView": 2,
      "byteOffset": 40284,
      "componentType": 5126,
      "count": 87,
      "max": [
        0.7178827524185181,
        0.8987794518470764,
        0.9997935891151428
      ],
      "min": [
        -0.619149386882782,
        -0.6703000664710999,
        -0.9997879266738892
      ],
      "type": "VEC3"
    },
    {
      "bufferView": 3,
      "byteOffset": 26160,
      "componentType": 5126,
      "count": 87,
      "max": [
        0.9051036834716797,
        0.6778075695037842,
        0.08980218321084976,
        1.0
      ],
      "min": [
        -0.9509677290916443,
        -0.754208505153656,
        -0.36877402663230896,
        1.0
      ],
      "type": "VEC4"
    },
    {
      "bufferView": 1,
      "byteOffset": 13080,
      "componentType": 5126,
      "count": 87,
      "max": [
        0.9866760969161987,
        0.9874140024185181
      ],
      "min": [
        0.058581624180078506,
        0.08762246370315552
      ],
      "type": "VEC2"
    },
    {
      "bufferView": 0,
      "byteOffset": 17220,
      "componentType": 5125,
      "count": 372,
      "type": "SCALAR"
    },
    {
      "bufferView": 2,
      "byteOffset": 41328,
      "componentType": 5126,
      "count": 200,
      "max": [
        150.16709899902344,
        181.76248168945313,
        20.189680099487305
      ],
      "min": [
        79.94171905517578,
        117.66183471679688,
        -1.010894775390625
      ],
      "type": "VEC3"
    },
    {
      "bufferView": 2,
      "byteOffset": 43728,
      "componentType": 5126,
      "count": 200,
      "max": [
        0.8319083452224731,
        0.9719824194908142,
        1.0
      ],
      "min": [
        -0.9999971389770508,
        -0.6011096239089966,
        -1.0
      ],
      "type": "VEC3"
    },
    {
      "bufferView": 3,
      "byteOffset": 27552,
      "componentType": 5126,
      "count": 200,
      "max": [
        0.9819339513778687,
        0.9999971389770508,
        1.0,
        1.0
      ],
      "min": [
        -0.8448734283447266,
        -0.6917348504066467,
        -1.0,
        -1.0
      ],
      "type": "VEC4"
    },
    {
      "bufferView": 1,
      "byteOffset": 13776,
      "componentType": 5126,
      "count": 200,
      "max": [
        0.9842281937599182,
        0.9721997976303101
      ],
      "min": [
        0.18926531076431274,
        0.04406122863292694
      ],
      "type": "VEC2"
    },
    {
      "bufferView": 0,
      "byteOffset": 18708,
      "componentType": 5125,
      "count": 444,
      "type": "SCALAR"
    },
    {
      "bufferView": 2,
      "byteOffset": 46128,
      "componentType": 5126,
      "count": 121,
      "max": [
        99.74073791503906,
        137.558349609375,
        41.23535919189453
      ],
      "min": [
        17.521947860717773,
        74.63745880126953,
        15.02804183959961
      ],
      "type": "VEC3"
    },
    {
      "bufferView": 2,
      "byteOffset": 47580,
      "componentType": 5126,
      "count": 121,
      "max": [
        0.8319084048271179,
        0.8448629379272461,
        1.0
      ],
      "min": [
        -0.8319090604782104,
        -0.8448625802993774,
        -1.0
      ],
      "type": "VEC3"
    },
    {
      "bufferView": 3,
      "byteOffset": 30752,
      "componentType": 5126,
      "count": 121,
      "max": [
        0.8658883571624756,
        0.8210551738739014,
        1.0,
        1.0
      ],
      "min": [
        -0.8660268783569336,
        -0.9558342099189758,
        -1.0,
        1.0
      ],
      "type": "VEC4"
    },
    {
      "bufferView": 1,
      "byteOffset": 15376,
      "componentType": 5126,
      "count": 121,
      "max": [
        0.8043770790100098,
        0.8669687509536743
      ],
      "min": [
        0.33930954337120056,
        0.26670750975608826
      ],
      "type": "VEC2"
    },
    {
      "bufferView": 0,
      "byteOffset": 20484,
      "componentType": 5125,
      "count": 264,
      "type": "SCALAR"
    },
    {
      "bufferView": 2,
      "byteOffset": 49032,
      "componentType": 5126,
      "count": 921,
      "max": [
        444.68896484375,
        337.859619140625,
        20.53969955444336
      ],
      "min": [
        -75.57530212402344,
        -22.649913787841797,
        -2.7439846992492676
      ],
      "type": "VEC3"
    },
    {
      "bufferView": 2,
      "byteOffset": 60084,
      "componentType": 5126,
      "count": 921,
      "max": [
        0.9907997250556946,
        0.9581129550933838,
        1.0
      ],
      "min": [
        -0.9704143404960632,
        -0.9958197474479675,
        -1.0
      ],
      "type": "VEC3"
    },
    {
      "bufferView": 3,
      "byteOffset": 32688,
      "componentType": 5126,
      "count": 921,
      "max": [
        0.9969128370285034,
        0.9978112578392029,
        1.0,
        1.0
      ],
      "min": [
        -0.9839759469032288,
        -0.8422159552574158,
        -1.0,
        -1.0
      ],
      "type": "VEC4"
    },
    {
      "bufferView": 1,
      "byteOffset": 16344,
      "componentType": 5126,
      "count": 921,
      "max": [
        0.9878140687942505,
        0.999500036239624
      ],
      "min": [
        0.0005000000237487257,
        0.0005956994718872011
      ],
      "type": "VEC2"
    },
    {
      "bufferView": 0,
      "byteOffset": 21540,
      "componentType": 5125,
      "count": 2328,
      "type": "SCALAR"
    },
    {
      "bufferView": 2,
      "byteOffset": 71136,
      "componentType": 5126,
      "count": 436,
      "max": [
        66.79303741455078,
        95.54735565185547,
        26.039941787719727
      ],
      "min": [
        -31.827693939208984,
        -7.474330902099609,
        6.6549601554870605
      ],
      "type": "VEC3"
    },
    {
      "bufferView": 2,
      "byteOffset": 76368,
      "componentType": 5126,
      "count": 436,
      "max": [
        0.9971478581428528,
        0.9996806383132935,
        1.0
      ],
      "min": [
        -0.9937312602996826,
        -0.9974040389060974,
        -1.0
      ],
      "type": "VEC3"
    },
    {
      "bufferView": 3,
      "byteOffset": 47424,
      "componentType": 5126,
      "count": 436,
      "max": [
        0.9671953320503235,
        0.9937313199043274,
        1.0,
        1.0
      ],
      "min": [
        -1.0,
        -0.9527232050895691,
        -1.0,
        -1.0
      ],
      "type": "VEC4"
    },
    {
      "bufferView": 1,
      "byteOffset": 23712,
      "componentType": 5126,
      "count": 436,
      "max": [
        0.9854644536972046,
        0.8980216979980469
      ],
      "min": [
        0.0005000000237487257,
        0.00543583557009697
      ],
      "type": "VEC2"
    },
    {
      "bufferView": 0,
      "byteOffset": 30852,
      "componentType": 5125,
      "count": 1095,
      "type": "SCALAR"
    }
  ],
  "asset": {
    "extras": {
      "author": "BRAIN_ZIP (https://sketchfab.com/BRAIN_ZIP)",
      "license": "CC-BY-4.0 (http://creativecommons.org/licenses/by/4.0/)",
      "source": "https://sketchfab.com/3d-models/ak-74-9b1dc4d02ff34bd299c713a5b04a0a15",
      "title": "Ak 74"
    },
    "generator": "Sketchfab-12.87.0",
    "version": "2.0"
  },
  "bufferViews": [
    {
      "buffer": 0,
      "byteLength": 35232,
      "name": "floatBufferViews",
      "target": 34963
    },
    {
      "buffer": 0,
      "byteLength": 27200,
      "byteOffset": 35232,
      "byteStride": 8,
      "name": "floatBufferViews",
      "target": 34962
    },
    {
      "buffer": 0,
      "byteLength": 81600,
      "byteOffset": 62432,
      "byteStride": 12,
      "name": "floatBufferViews",
      "target": 34962
    },
    {
      "buffer": 0,
      "byteLength": 54400,
      "byteOffset": 144032,
      "byteStride": 16,
      "name": "floatBufferViews",
      "target": 34962
    }
  ],
  "buffers": [
    {
      "byteLength": 198432,
      "uri": "scene.bin"
    }
  ],
  "images": [
    {
      "uri": "textures/Material_14_baseColor.png"
    },
    {
      "uri": "textures/Material_14_metallicRoughness.png"
    },
    {
      "uri": "textures/Material_14_normal.png"
    }
  ],
  "materials": [
    {
      "doubleSided": true,
      "name": "Material_14",
      "normalTexture": {
        "index": 2
      },
      "occlusionTexture": {
        "index": 1
      },
      "pbrMetallicRoughness": {
        "baseColorTexture": {
          "index": 0
        },
        "metallicRoughnessTexture": {
          "index": 1
        }
      }
    }
  ],
  "meshes": [
    {
      "name": "Object044_Material #14_0",
      "primitives": [
        {
          "attributes": {
            "NORMAL": 1,
            "POSITION": 0,
            "TANGENT": 2,
            "TEXCOORD_0": 3
          },
          "indices": 4,
          "material": 0,
          "mode": 4
        }
      ]
    },
    {
      "name": "Object046_Material #14_0",
      "primitives": [
        {
          "attributes": {
            "NORMAL": 6,
            "POSITION": 5,
            "TANGENT": 7,
            "TEXCOORD_0": 8
          },
          "indices": 9,
          "material": 0,
          "mode": 4
        }
      ]
    },
    {
      "name": "Object047_Material #14_0",
      "primitives": [
        {
          "attributes": {
            "NORMAL": 11,
            "POSITION": 10,
            "TANGENT": 12,
            "TEXCOORD_0": 13
          },
          "indices": 14,
          "material": 0,
          "mode": 4
        }
      ]
    },
    {
      "name": "Object048_Material #14_0",
      "primitives": [
        {
          "attributes": {
            "NORMAL": 16,
            "POSITION": 15,
            "TANGENT": 17,
            "TEXCOORD_0": 18
          },
          "indices": 19,
          "material": 0,
          "mode": 4
        }
      ]
    },
    {
      "name": "Object049_Material #14_0",
      "primitives": [
        {
          "attributes": {
            "NORMAL": 21,
            "POSITION": 20,
            "TANGENT": 22,
            "TEXCOORD_0": 23
          },
          "indices": 24,
          "material": 0,
          "mode": 4
        }
      ]
    },
    {
      "name": "Object050_Material #14_0",
      "primitives": [
        {
          "attributes": {
            "NORMAL": 26,
            "POSITION": 25,
            "TANGENT": 27,
            "TEXCOORD_0": 28
          },
          "indices": 29,
          "material": 0,
          "mode": 4
        }
      ]
    },
    {
      "name": "Object051_Material #14_0",
      "primitives": [
        {
          "attributes": {
            "NORMAL": 31,
            "POSITION": 30,
            "TANGENT": 32,
            "TEXCOORD_0": 33
          },
          "indices": 34,
          "material": 0,
          "mode": 4
        }
      ]
    }
  ],
  "nodes": [
    {
      "children": [
        1
      ],
      "matrix": [
        1.0,
        0.0,
        0.0,
        0.0,
        0.0,
        2.220446049250313e-16,
        -1.0,
        0.0,
        0.0,
        1.0,
        2.220446049250313e-16,
        0.0,
        0.0,
        0.0,
        0.0,
        1.0
      ],
      "name": "Sketchfab_model"
    },
    {
      "children": [
        2
      ],
      "matrix": [
        1.0,
        0.0,
        0.0,
        0.0,
        0.0,
        0.0,
        1.0,
        0.0,
        0.0,
        -1.0,
        0.0,
        0.0,
        0.0,
        0.0,
        0.0,
        1.0
      ],
      "name": "974ffde2967542a58c60d5ed6c43d53e.fbx"
    },
    {
      "children": [
        3,
        6,
        9,
        12,
        15,
        18,
        21
      ],
      "name": "RootNode"
    },
    {
      "children": [
        4
      ],
      "matrix": [
        0.020750489138154533,
        -0.0134859451738343,
        -7.375418650701292e-10,
        0.0,
        0.013841352682770237,
        0.021297345851475424,
        6.674133684912016e-09,
        0.0,
        -3.848173911839941e-09,
        -7.701603869204045e-09,
        0.03255668282508736,
        0.0,
        0.0,
        0.0,
        0.0,
        1.0
      ],
      "name": "Object044"
    },
    {
      "children": [
        5
      ],
      "matrix": [
        1.0,
        0.0,
        -0.0,
        0.0,
        0.0,
        1.0,
        0.0,
        0.0,
        0.0,
        0.0,
        1.0,
        0.0,
        -102.95719146728516,
        -133.4438934326172,
        -20.80425453186035,
        1.0
      ],
      "name": "Object_4"
    },
    {
      "mesh": 0,
      "name": "Object044_Material #14_0"
    },
    {
      "children": [
        7
      ],
      "matrix": [
        0.020750489138154533,
        -0.0134859451738343,
        -7.375418650701292e-10,
        0.0,
        0.013841352682770237,
        0.021297345851475424,
        6.674133684912016e-09,
        0.0,
        -3.848173911839941e-09,
        -7.701603869204045e-09,
        0.03255668282508736,
        0.0,
        0.0,
        0.0,
        0.0,
        1.0
      ],
      "name": "Object046"
    },
    {
      "children": [
        8
      ],
      "matrix": [
        1.0,
        0.0,
        -0.0,
        0.0,
        0.0,
        1.0,
        0.0,
        0.0,
        0.0,
        0.0,
        1.0,
        0.0,
        -102.95719146728516,
        -133.4438934326172,
        -20.80425453186035,
        1.0
      ],
      "name": "Object_7"
    },
    {
      "mesh": 1,
      "name": "Object046_Material #14_0"
    },
    {
      "children": [
        10
      ],
      "matrix": [
        0.020750489138154533,
        -0.0134859451738343,
        -7.375418650701292e-10,
        0.0,
        0.013841352682770237,
        0.021297345851475424,
        6.674133684912016e-09,
        0.0,
        -3.848173911839941e-09,
        -7.701603869204045e-09,
        0.03255668282508736,
        0.0,
        0.0,
        0.0,
        0.0,
        1.0
      ],
      "name": "Object047"
    },
    {
      "children": [
        11
      ],
      "matrix": [
        1.0,
        0.0,
        -0.0,
        0.0,
        0.0,
        1.0,
        0.0,
        0.0,
        0.0,
        0.0,
        1.0,
        0.0,
        -102.95719146728516,
        -133.4438934326172,
        -20.80425453186035,
        1.0
      ],
      "name": "Object_10"
    },
    {
      "mesh": 2,
      "name": "Object047_Material #14_0"
    },
    {
      "children": [
        13
      ],
      "matrix": [
        0.020750489138154533,
        -0.0134859451738343,
        -7.375418650701292e-10,
        0.0,
        0.013841352682770237,
        0.021297345851475424,
        6.674133684912016e-09,
        0.0,
        -3.848173911839941e-09,
        -7.701603869204045e-09,
        0.03255668282508736,
        0.0,
        0.0,
        0.0,
        0.0,
        1.0
      ],
      "name": "Object048"
    },
    {
      "children": [
        14
      ],
      "matrix": [
        1.0,
        0.0,
        -0.0,
        0.0,
        0.0,
        1.0,
        0.0,
        0.0,
        0.0,
        0.0,
        1.0,
        0.0,
        -102.95719146728516,
        -133.4438934326172,
        -20.80425453186035,
        1.0
      ],
      "name": "Object_13"
    },
    {
      "mesh": 3,
      "name": "Object048_Material #14_0"
    },
    {
      "children": [
        16
      ],
      "matrix": [
        0.020750489138154533,
        -0.0134859451738343,
        -7.375418650701292e-10,
        0.0,
        0.013841352682770237,
        0.021297345851475424,
        6.674133684912016e-09,
        0.0,
        -3.848173911839941e-09,
        -7.701603869204045e-09,
        0.03255668282508736,
        0.0,
        0.0,
        0.0,
        0.0,
        1.0
      ],
      "name": "Object049"
    },
    {
      "children": [
        17
      ],
      "matrix": [
        1.0,
        0.0,
        -0.0,
        0.0,
        0.0,
        1.0,
        0.0,
        0.0,
        0.0,
        0.0,
        1.0,
        0.0,
        -102.95719146728516,
        -133.4438934326172,
        -20.80425453186035,
        1.0
      ],
      "name": "Object_16"
    },
    {
      "mesh": 4,
      "name": "Object049_Material #14_0"
    },
    {
      "children": [
        19
      ],
      "matrix": [
        0.020750489138154533,
        -0.0134859451738343,
        -7.375418650701292e-10,
        0.0,
        0.013841352682770237,
        0.021297345851475424,
        6.674133684912016e-09,
        0.0,
        -3.848173911839941e-09,
        -7.701603869204045e-09,
        0.03255668282508736,
        0.0,
        0.0,
        0.0,
        0.0,
        1.0
      ],
      "name": "Object050"
    },
    {
      "children": [
        20
      ],
      "matrix": [
        1.0,
        0.0,
        -0.0,
        0.0,
        0.0,
        1.0,
        0.0,
        0.0,
        0.0,
        0.0,
        1.0,
        0.0,
        -102.95719146728516,
        -133.4438934326172,
        -20.80425453186035,
        1.0
      ],
      "name": "Object_19"
    },
    {
      "mesh": 5,
      "name": "Object050_Material #14_0"
    },
    {
      "children": [
        22
      ],
      "matrix": [
        0.020750489138154533,
        -0.0134859451738343,
        -7.375418650701292e-10,
        0.0,
        0.013841352682770237,
        0.021297345851475424,
        6.674133684912016e-09,
        0.0,
        -3.848173911839941e-09,
        -7.701603869204045e-09,
        0.03255668282508736,
        0.0,
        0.0,
        0.0,
        0.0,
        1.0
      ],
      "name": "Object051"
    },
    {
      "children": [
        23
      ],
      "matrix": [
        1.0,
        0.0,
        -0.0,
        0.0,
        0.0,
        1.0,
        0.0,
        0.0,
        0.0,
        0.0,
        1.0,
        0.0,
        -102.95719146728516,
        -133.4438934326172,
        -20.80425453186035,
        1.0
      ],
      "name": "Object_22"
    },
    {
      "mesh": 6,
      "name": "Object051_Material #14_0"
    }
  ],
  "samplers": [
    {
      "magFilter": 9729,
      "minFilter": 9987,
      "wrapS": 10497,
      "wrapT": 10497
    }
  ],
  "scene": 0,
  "scenes": [
    {
      "name": "Sketchfab_Scene",
      "nodes": [
        0
      ]
    }
  ],
  "textures": [
    {
      "sampler": 0,
      "source": 0
    },
    {
      "sampler": 0,
      "source": 1
    },
    {
      "sampler": 0,
      "source": 2
    }
  ]
}
